# xmcd
#
# Track frame offsets: 
#        150
#        16816
#        34374
#        53221
#        72201
#        91849
#        105639
#        121910
#        176577
#        191807
#        203534
#
# Disc length: 3088 seconds
#
# Revision: 0
# Processed by: cddbd v1.5.2PL0 Copyright (c) Steve Scherf et al.
# Submitted via: ExactAudioCopy v1.3
#
DISCID=8e0c0e0b
DTITLE=Ralph De Jongh - Sun Coming Up
DYEAR=2015
DGENRE=Blues Rock
TTITLE0=Turn Me On
TTITLE1=On Your Own
TTITLE2=Sun Coming Up
TTITLE3=Easy Day
TTITLE4=Worried Man Blues
TTITLE5=Goodmorning Woman
TTITLE6=Burning
TTITLE7=Harry
TTITLE8=Last Goodbye
TTITLE9=My Yell Bam Bam
TTITLE10=It's Allright
EXTD=
EXTT0=
EXTT1=
EXTT2=
EXTT3=
EXTT4=
EXTT5=
EXTT6=
EXTT7=
EXTT8=
EXTT9=
EXTT10=
PLAYORDER=
